<?xml version="1.0" encoding="UTF-8" standalone="no"?>
<!DOCTYPE svg PUBLIC "-//W3C//DTD SVG 1.1//EN"
 "http://www.w3.org/Graphics/SVG/1.1/DTD/svg11.dtd">
<!-- Generated by graphviz version 3.0.0 (20220226.1711)
 -->
<!-- Title: finite_state_machine Pages: 1 -->
<svg width="576pt" height="260pt"
 viewBox="0.00 0.00 576.00 260.10" xmlns="http://www.w3.org/2000/svg" xmlns:xlink="http://www.w3.org/1999/xlink">
<g id="graph0" class="graph" transform="scale(0.792769 0.792769) rotate(0) translate(4 324.09)">
<title>finite_state_machine</title>
<polygon fill="white" stroke="transparent" points="-4,4 -4,-324.09 722.57,-324.09 722.57,4 -4,4"/>
<!-- LR_0 -->
<g id="node1" class="node">
<title>LR_0</title>
<ellipse fill="none" stroke="black" cx="34.55" cy="-80.55" rx="30.59" ry="30.59"/>
<ellipse fill="none" stroke="black" cx="34.55" cy="-80.55" rx="34.59" ry="34.59"/>
<text text-anchor="middle" x="34.55" y="-76.85" font-family="Times,serif" font-size="14.00">LR_0</text>
</g>
<!-- LR_2 -->
<g id="node5" class="node">
<title>LR_2</title>
<ellipse fill="none" stroke="black" cx="169.64" cy="-148.55" rx="30.59" ry="30.59"/>
<text text-anchor="middle" x="169.64" y="-144.85" font-family="Times,serif" font-size="14.00">LR_2</text>
</g>
<!-- LR_0&#45;&gt;LR_2 -->
<g id="edge1" class="edge">
<title>LR_0&#45;&gt;LR_2</title>
<path fill="none" stroke="black" d="M65.75,-95.98C85.79,-106.22 112.18,-119.7 133.21,-130.45"/>
<polygon fill="black" stroke="black" points="131.67,-133.59 142.16,-135.02 134.85,-127.35 131.67,-133.59"/>
<text text-anchor="middle" x="104.09" y="-126.35" font-family="Times,serif" font-size="14.00">SS(B)</text>
</g>
<!-- LR_1 -->
<g id="node6" class="node">
<title>LR_1</title>
<ellipse fill="none" stroke="black" cx="169.64" cy="-41.55" rx="30.59" ry="30.59"/>
<text text-anchor="middle" x="169.64" y="-37.85" font-family="Times,serif" font-size="14.00">LR_1</text>
</g>
<!-- LR_0&#45;&gt;LR_1 -->
<g id="edge2" class="edge">
<title>LR_0&#45;&gt;LR_1</title>
<path fill="none" stroke="black" d="M68.11,-71.01C86.93,-65.49 110.73,-58.52 130.44,-52.74"/>
<polygon fill="black" stroke="black" points="131.42,-56.1 140.03,-49.93 129.45,-49.38 131.42,-56.1"/>
<text text-anchor="middle" x="104.09" y="-68.35" font-family="Times,serif" font-size="14.00">SS(S)</text>
</g>
<!-- LR_3 -->
<g id="node2" class="node">
<title>LR_3</title>
<ellipse fill="none" stroke="black" cx="313.74" cy="-34.55" rx="30.59" ry="30.59"/>
<ellipse fill="none" stroke="black" cx="313.74" cy="-34.55" rx="34.59" ry="34.59"/>
<text text-anchor="middle" x="313.74" y="-30.85" font-family="Times,serif" font-size="14.00">LR_3</text>
</g>
<!-- LR_4 -->
<g id="node3" class="node">
<title>LR_4</title>
<ellipse fill="none" stroke="black" cx="313.74" cy="-285.55" rx="30.59" ry="30.59"/>
<ellipse fill="none" stroke="black" cx="313.74" cy="-285.55" rx="34.59" ry="34.59"/>
<text text-anchor="middle" x="313.74" y="-281.85" font-family="Times,serif" font-size="14.00">LR_4</text>
</g>
<!-- LR_8 -->
<g id="node4" class="node">
<title>LR_8</title>
<ellipse fill="none" stroke="black" cx="684.02" cy="-145.55" rx="30.59" ry="30.59"/>
<ellipse fill="none" stroke="black" cx="684.02" cy="-145.55" rx="34.59" ry="34.59"/>
<text text-anchor="middle" x="684.02" y="-141.85" font-family="Times,serif" font-size="14.00">LR_8</text>
</g>
<!-- LR_6 -->
<g id="node7" class="node">
<title>LR_6</title>
<ellipse fill="none" stroke="black" cx="313.74" cy="-169.55" rx="30.59" ry="30.59"/>
<text text-anchor="middle" x="313.74" y="-165.85" font-family="Times,serif" font-size="14.00">LR_6</text>
</g>
<!-- LR_8&#45;&gt;LR_6 -->
<g id="edge13" class="edge">
<title>LR_8&#45;&gt;LR_6</title>
<path fill="none" stroke="black" d="M650.11,-152.21C608.14,-160.33 533.23,-173.59 468.38,-178.55 441.3,-180.62 434.4,-179.86 407.28,-178.55 389.96,-177.71 370.87,-175.99 354.55,-174.27"/>
<polygon fill="black" stroke="black" points="354.6,-170.76 344.28,-173.16 353.84,-177.72 354.6,-170.76"/>
<text text-anchor="middle" x="498.38" y="-180.35" font-family="Times,serif" font-size="14.00">S(b)</text>
</g>
<!-- LR_5 -->
<g id="node8" class="node">
<title>LR_5</title>
<ellipse fill="none" stroke="black" cx="437.83" cy="-105.55" rx="30.59" ry="30.59"/>
<text text-anchor="middle" x="437.83" y="-101.85" font-family="Times,serif" font-size="14.00">LR_5</text>
</g>
<!-- LR_8&#45;&gt;LR_5 -->
<g id="edge14" class="edge">
<title>LR_8&#45;&gt;LR_5</title>
<path fill="none" stroke="black" d="M649.61,-140.17C610.48,-133.85 543.71,-123.03 486.38,-113.55 483.68,-113.1 480.9,-112.64 478.1,-112.17"/>
<polygon fill="black" stroke="black" points="478.44,-108.68 468,-110.48 477.28,-115.58 478.44,-108.68"/>
<text text-anchor="middle" x="558.93" y="-133.35" font-family="Times,serif" font-size="14.00">S(a)</text>
</g>
<!-- LR_2&#45;&gt;LR_4 -->
<g id="edge6" class="edge">
<title>LR_2&#45;&gt;LR_4</title>
<path fill="none" stroke="black" d="M192.22,-169.35C215.78,-192.07 253.75,-228.68 280.77,-254.73"/>
<polygon fill="black" stroke="black" points="278.45,-257.36 288.08,-261.78 283.31,-252.32 278.45,-257.36"/>
<text text-anchor="middle" x="239.69" y="-236.35" font-family="Times,serif" font-size="14.00">S(A)</text>
</g>
<!-- LR_2&#45;&gt;LR_6 -->
<g id="edge4" class="edge">
<title>LR_2&#45;&gt;LR_6</title>
<path fill="none" stroke="black" d="M200.08,-152.9C221.23,-156.02 249.97,-160.27 273.13,-163.69"/>
<polygon fill="black" stroke="black" points="272.93,-167.2 283.33,-165.2 273.95,-160.28 272.93,-167.2"/>
<text text-anchor="middle" x="239.69" y="-164.35" font-family="Times,serif" font-size="14.00">SS(b)</text>
</g>
<!-- LR_2&#45;&gt;LR_5 -->
<g id="edge5" class="edge">
<title>LR_2&#45;&gt;LR_5</title>
<path fill="none" stroke="black" d="M198.28,-137.81C219.94,-129.91 251.02,-119.68 279.19,-114.55 318.8,-107.33 364.86,-105.43 396.92,-105.12"/>
<polygon fill="black" stroke="black" points="397.25,-108.62 407.23,-105.08 397.21,-101.62 397.25,-108.62"/>
<text text-anchor="middle" x="313.74" y="-118.35" font-family="Times,serif" font-size="14.00">SS(a)</text>
</g>
<!-- LR_1&#45;&gt;LR_3 -->
<g id="edge3" class="edge">
<title>LR_1&#45;&gt;LR_3</title>
<path fill="none" stroke="black" d="M200.43,-40.08C220.24,-39.1 246.6,-37.81 268.81,-36.71"/>
<polygon fill="black" stroke="black" points="269.19,-40.2 279,-36.21 268.84,-33.21 269.19,-40.2"/>
<text text-anchor="middle" x="239.69" y="-43.35" font-family="Times,serif" font-size="14.00">S($end)</text>
</g>
<!-- LR_6&#45;&gt;LR_6 -->
<g id="edge9" class="edge">
<title>LR_6&#45;&gt;LR_6</title>
<path fill="none" stroke="black" d="M301.78,-197.97C301.25,-208.96 305.24,-218.09 313.74,-218.09 319.45,-218.09 323.12,-213.97 324.75,-207.93"/>
<polygon fill="black" stroke="black" points="328.24,-208.25 325.69,-197.97 321.27,-207.6 328.24,-208.25"/>
<text text-anchor="middle" x="313.74" y="-221.89" font-family="Times,serif" font-size="14.00">S(b)</text>
</g>
<!-- LR_6&#45;&gt;LR_5 -->
<g id="edge10" class="edge">
<title>LR_6&#45;&gt;LR_5</title>
<path fill="none" stroke="black" d="M341.23,-155.66C358.83,-146.43 382.14,-134.21 401.34,-124.15"/>
<polygon fill="black" stroke="black" points="403.16,-127.15 410.39,-119.41 399.91,-120.95 403.16,-127.15"/>
<text text-anchor="middle" x="377.78" y="-144.35" font-family="Times,serif" font-size="14.00">S(a)</text>
</g>
<!-- LR_5&#45;&gt;LR_5 -->
<g id="edge8" class="edge">
<title>LR_5&#45;&gt;LR_5</title>
<path fill="none" stroke="black" d="M426.62,-133.97C426.13,-144.96 429.86,-154.09 437.83,-154.09 443.19,-154.09 446.63,-149.97 448.16,-143.93"/>
<polygon fill="black" stroke="black" points="451.65,-144.24 449.04,-133.97 444.67,-143.63 451.65,-144.24"/>
<text text-anchor="middle" x="437.83" y="-157.89" font-family="Times,serif" font-size="14.00">S(a)</text>
</g>
<!-- LR_7 -->
<g id="node9" class="node">
<title>LR_7</title>
<ellipse fill="none" stroke="black" cx="558.93" cy="-78.55" rx="30.59" ry="30.59"/>
<text text-anchor="middle" x="558.93" y="-74.85" font-family="Times,serif" font-size="14.00">LR_7</text>
</g>
<!-- LR_5&#45;&gt;LR_7 -->
<g id="edge7" class="edge">
<title>LR_5&#45;&gt;LR_7</title>
<path fill="none" stroke="black" d="M467.96,-98.94C483.25,-95.48 502.19,-91.18 518.74,-87.43"/>
<polygon fill="black" stroke="black" points="519.7,-90.8 528.68,-85.18 518.15,-83.98 519.7,-90.8"/>
<text text-anchor="middle" x="498.38" y="-98.35" font-family="Times,serif" font-size="14.00">S(b)</text>
</g>
<!-- LR_7&#45;&gt;LR_8 -->
<g id="edge11" class="edge">
<title>LR_7&#45;&gt;LR_8</title>
<path fill="none" stroke="black" d="M586.51,-92.47C600.02,-99.59 616.66,-108.45 631.47,-116.55 635.75,-118.89 640.22,-121.36 644.65,-123.83"/>
<polygon fill="black" stroke="black" points="643.21,-127.03 653.65,-128.86 646.63,-120.92 643.21,-127.03"/>
<text text-anchor="middle" x="619.47" y="-120.35" font-family="Times,serif" font-size="14.00">S(b)</text>
</g>
<!-- LR_7&#45;&gt;LR_5 -->
<g id="edge12" class="edge">
<title>LR_7&#45;&gt;LR_5</title>
<path fill="none" stroke="black" d="M529.16,-70.53C515.87,-68.13 500.05,-67.16 486.38,-71.55 480.56,-73.41 474.85,-76.28 469.51,-79.58"/>
<polygon fill="black" stroke="black" points="467.23,-76.9 460.94,-85.43 471.17,-82.69 467.23,-76.9"/>
<text text-anchor="middle" x="498.38" y="-75.35" font-family="Times,serif" font-size="14.00">S(a)</text>
</g>
</g>
</svg>
