<?xml version="1.0" standalone="no"?>
<!DOCTYPE svg PUBLIC "-//W3C//DTD SVG 20010904//EN"
 "http://www.w3.org/TR/2001/REC-SVG-20010904/DTD/svg10.dtd">
<svg version="1.0" xmlns="http://www.w3.org/2000/svg"
 width="700.000000pt" height="700.000000pt" viewBox="0 0 700.000000 700.000000"
 preserveAspectRatio="xMidYMid meet">
<metadata>
Created by potrace 1.11, written by Peter Selinger 2001-2013
</metadata>
<g transform="translate(0.000000,700.000000) scale(0.100000,-0.100000)"
fill="#000000" stroke="none">
<path d="M3357 6995 c-1 -1 -54 -5 -117 -9 -63 -3 -126 -8 -140 -10 -14 -3
-52 -7 -85 -11 -33 -3 -69 -8 -80 -10 -11 -3 -36 -7 -55 -9 -377 -55 -845
-222 -1189 -425 -641 -379 -1122 -927 -1409 -1606 -120 -285 -218 -652 -247
-930 -4 -33 -9 -71 -11 -85 -18 -112 -24 -492 -11 -670 8 -110 13 -147 33
-300 11 -80 47 -253 79 -375 211 -812 706 -1508 1401 -1971 78 -52 145 -94
149 -94 4 0 20 -9 35 -20 48 -35 305 -158 432 -209 212 -84 487 -165 633 -186
22 -4 48 -8 57 -11 24 -7 82 -16 178 -29 25 -3 61 -7 80 -10 185 -24 647 -24
815 0 17 2 54 6 84 10 30 3 64 8 75 10 12 2 35 6 51 9 27 3 109 18 174 31 179
35 507 137 656 205 305 138 526 268 740 435 525 409 906 949 1119 1587 49 148
76 238 90 308 3 14 16 79 30 145 24 117 31 159 42 260 3 28 8 61 10 75 23 133
22 660 -1 815 -2 17 -7 48 -9 70 -11 89 -26 184 -40 250 -8 39 -17 82 -20 95
-11 53 -16 73 -41 167 -340 1249 -1329 2170 -2600 2422 -82 16 -170 32 -195
35 -25 4 -56 8 -70 10 -40 7 -128 15 -220 22 -79 6 -417 13 -423 9z m473 -559
c25 -4 79 -11 121 -17 78 -10 86 -11 179 -30 144 -28 475 -126 505 -149 6 -4
21 -11 35 -15 42 -12 280 -130 355 -175 372 -226 661 -501 886 -842 99 -151
113 -175 174 -298 128 -256 228 -558 270 -810 3 -19 8 -42 10 -50 2 -8 7 -42
11 -75 3 -33 8 -68 10 -79 18 -98 25 -535 10 -691 -68 -726 -353 -1351 -837
-1834 -384 -384 -925 -665 -1464 -760 -33 -6 -71 -13 -84 -16 -13 -2 -49 -7
-80 -11 -31 -3 -65 -8 -75 -10 -120 -22 -613 -21 -728 2 -13 2 -43 6 -68 9
-25 3 -56 7 -70 10 -14 3 -53 10 -87 15 -75 12 -269 62 -366 94 -289 96 -510
210 -807 416 -69 47 -215 175 -309 270 -354 357 -607 813 -735 1325 -25 98
-63 308 -71 382 -16 165 -20 233 -19 413 0 186 7 322 19 390 2 14 7 45 10 70
20 154 81 428 116 518 6 15 12 35 14 45 9 40 101 260 157 371 145 290 289 488
522 722 410 409 903 665 1491 773 61 11 130 22 155 25 25 3 70 8 100 12 30 3
56 8 58 9 7 6 547 -2 592 -9z"/>
<path d="M2733 5701 c-6 -5 -10 -359 -4 -391 1 -3 34 -6 74 -7 39 0 91 -6 114
-12 52 -14 99 -68 109 -125 5 -23 9 -813 10 -1756 1 -943 2 -1721 3 -1727 1
-10 103 -13 460 -13 426 0 459 2 463 18 8 33 2 3688 -6 3742 -22 143 -97 228
-233 261 -50 13 -974 22 -990 10z"/>
<path d="M2086 4813 c-1 -1 -35 -3 -76 -4 -191 -6 -295 -70 -341 -212 l-24
-72 0 -1425 0 -1425 448 -2 447 -3 0 1570 0 1570 -97 0 c-54 0 -156 2 -226 3
-71 1 -130 1 -131 0z"/>
<path d="M4528 4812 l-68 -3 0 -1569 0 -1569 444 -1 c348 0 445 3 448 12 3 7
4 650 3 1428 -1 1323 -2 1419 -19 1474 -20 68 -39 100 -81 139 -70 65 -147 84
-342 87 -82 0 -186 2 -233 3 -47 1 -115 1 -152 -1z"/>
</g>
</svg>
